<svg xmlns="http://www.w3.org/2000/svg" viewBox="0 0 282.53 451.53"><g id="Слой_2" data-name="Слой 2"><g id="Слой_1-2" data-name="Слой 1"><path d="M65.23,11.31,267.85,216.09l1.59,1.6.8.81.86.91c.56.61,1.14,1.21,1.67,1.85a43.71,43.71,0,0,1,5.45,8.41,41.8,41.8,0,0,1-.57,38.07c-.79,1.42-1.65,2.83-2.57,4.17a43,43,0,0,1-3,3.8c-.55.59-1.1,1.18-1.66,1.75l-.42.43-.2.2-.11.1-.42.38-1.66,1.5-26.71,24.16-53.42,48.31L80.63,449.16a9.2,9.2,0,0,1-13-13l96.62-106.83,48.31-53.42,24.15-26.71,1.51-1.67.38-.42.09-.1s0,0,0,0h0a.51.51,0,0,0-.16.09c-.06.08-.24.11-.3.23a1,1,0,0,0-.3.29,3.28,3.28,0,0,0-.82,1.52,3.79,3.79,0,0,0,0,1.92,4.08,4.08,0,0,0,.42,1c.05.08.06.17.11.24l.08.1,0,.05,0,0L236,251,13.85,67.52A38.12,38.12,0,0,1,62.4,8.73C63.38,9.54,64.35,10.43,65.23,11.31Z"/></g></g></svg>