<svg xmlns="http://www.w3.org/2000/svg" viewBox="0 0 89.87 95.11"><defs><style>.cls-1{fill:#f1e7ff;stroke:#000;stroke-linejoin:round;}</style></defs><g id="Слой_2" data-name="Слой 2"><g id="_1" data-name="1"><path class="cls-1" d="M35.58,1.77,31.4,11,23.93,27l-4.15,7.94-6.24,8.69L5.22,56.08,18.5,68.67,16.3,72l-5.24,3.48L6.59,77.67C5.6,78.17.5,83.34.5,83.34l2.34,1.92,6.45,1.13,2.83-1.63.07-2.41,3.12-1.91,2.41,1.91,2.2,2.2,4.46.64,3.33-1.56.57-5.6a22.68,22.68,0,0,1,2.83,1.2,10.36,10.36,0,0,0,1.56.92l1-.42,1.7-2.48,2.55-.92,1.7,1.27-.71,2.27-1.13,3L38.91,85a8.67,8.67,0,0,1,2-.07,31,31,0,0,0,3.26.71c.22,0,4,.43,4,.43l.36-5L53.86,81l3.9,4.47,3.12,1.91,3.61,1,3.76,4,3.19,2.2h4.32L79,89.15,82.49,84l2.91-4.54.85-3.75-.36-7.23s.22-7.37.36-7.58,3.12-6,3.12-6l-2.48-2.12L84,52.44l-3.83-3.25-5.24-4.4L73.3,44l-.59-14-.35-2.62L74.2,27s0-3-.42-3-3.41-.5-3.76-.5a6.55,6.55,0,0,1-2.27-2.12c-.07-.43-3-5.15-3-5.15l-4.84,5.68-2.48.17-.82-1.89L56.06,16l-1.51-.71-.78-2.14-2-1.7-3-.91-.43,1.83-2.69-.48-1,1.83,2.56,1.5V18l-1.86.48-2.67,1L40.32,17.7l-3-.4,2.48-2.83.07-2.06-2.41-.29-.07-4,4-.93.37-1.31,2.33-.34V2.77L41.67.5l-2.3,1.35H36.15Z"/></g></g></svg>