<svg xmlns="http://www.w3.org/2000/svg" viewBox="0 0 67.22 75.49"><defs><style>.cls-1{fill:#f1e7ff;stroke:#000;stroke-miterlimit:10;}</style></defs><g id="Слой_2" data-name="Слой 2"><g id="_10" data-name="10"><path class="cls-1" d="M7.09,3.41,17,3.89l6.52.66s8.13-.48,8.41-.57S40.63.58,40.63.58L48.76,8,51,10.69h5.78l-.41,2.68-1,1.52.24,1.47-.09,2.69-1.66,1.23-.28,2,5,0,.29-1.47,2.45.82,1.11,1.19,1.31,1.93,1.31,2.19.68,1.86.93,2.55-.14,4L64.82,36l-1,.4L63,37.73,61.6,40l-.84,2.55-5.29,0v2.84l.94,1.82.26.51.55,2.61,1.51,1.43-.29,2.33-1.28,1L57,57.91l1.54.65,1.2.84,1.07.85.3,3-1.35.22-2.17-.92-2.72-.61-2.41,1.35-2.3,2.37-3.33,1.21-2.38.67H41.33l-2-1.84-2-.28-4.75.39-3.26.49-.59,2.91L27,72.3,25,75H22.82L21.5,73,19,70.5,16.73,68l.09-2.26-.28-2.84-1.42-3.26-3.35-.09L9.22,58.45l-1-3.4-.56-3.78-.57-1.7-2-2.17L2.79,46.07,2.63,40.9.5,40.15V37.38l1-1.86.64-6.59L3,26.09l1.27-5L6.15,15.6l.92-3.17A8.54,8.54,0,0,0,7.41,9.5Z"/></g></g></svg>