<svg xmlns="http://www.w3.org/2000/svg" viewBox="0 0 100.26 90.92"><defs><style>.cls-1{fill:#f1e7ff;stroke:#000;stroke-linejoin:round;}</style></defs><g id="Слой_2" data-name="Слой 2"><g id="_11" data-name="11"><path class="cls-1" d="M25.27,7.56l-.75,2.87V13.9l-2.9.43a9.39,9.39,0,0,0,.49,2.34A15.18,15.18,0,0,1,23,19.08l-2.2,1.49-1.21,1.27-.42,2.27H15.88s.21,3.4.35,3.68A8.9,8.9,0,0,0,17.51,29l-.92,1.49H14.46v2.26L10,35.45v1.41l-4.54.78.61,5L3.48,44.16l-3,.62,1,4.77H3.71l.71,2.93-2.6.28.81,2.65H6.5l1.37,2.45h2.69L11,60.7l9.49-.52,5.95-6.52H28l1,1.65,1.46,1,3.5.19,3.35-.14L39,60.18l3.59,3.12,6,1.42,7.66-1.42,5-.19,3.17,2.08s3.78,1.41,3.78,1.7.28,4.34.56,4.63,2.75,1.13,2.37,2.08-.48,4.25-.66,4.63S70,82.48,70,82.48l3.21,3.68h3L77,85l5.29.28s2.36,1.8,2.64,2S90.74,89,90.74,89l1.13,1.42H95V85.31l4.16-5.85V67.27l-2.37-2.46.1-4.35,2.27-2.64.61-1.37-.19-10.09-2.31-.64-4.19-1.2-3.74-1.18-2.16-.92-3.51-1.55-3.44-1.81V34.38l-1.88,0-1.3,0-1.35-.23-1.39-.32-1.48-1-2.09-1.38-1.42.17-1.88.16-.69-.08.91-2.68,2.12-.42.48-1.78-3-1L66,25.61,64,22.55l0-2.89L65.34,18l-1.41-2.12.77-7.44,2.91-.36L67.4,2l-2-.85L62.62.5l-1.95,1L59.26,2.68,58,3.94,55.69,5l-2.55.81-.9.26-3.05,0L47.27,4.48,45.3,4l-3.13.19-2.46.24L37,4.9l-.56,2.76-1.11,2-1.25,2-1.3,1.8-2.28,0-.89-1.33-1-1.21Z"/></g></g></svg>