<svg xmlns="http://www.w3.org/2000/svg" viewBox="0 0 30.17 29.32"><defs><style>.cls-1{fill:#f1e7ff;stroke:#000;stroke-linejoin:round;}</style></defs><g id="Слой_2" data-name="Слой 2"><g id="_12" data-name="12"><polygon class="cls-1" points="4.84 2.94 3.76 4.84 1.68 5.36 0.58 8.91 0.5 12.63 1.75 14.57 4.23 14.95 3.91 21.99 5.13 22.65 5.13 24.37 7.28 26 10.75 26.48 12.64 27.21 15.5 27.78 17.63 27.78 18 28.82 20.27 28.7 20.51 26.5 20.93 25.7 21.97 24.49 29.67 24.52 29.41 20.17 28.35 17.34 27.1 13.15 25.78 10.67 26.06 8.67 27.55 7.13 27.22 5.19 26.89 0.5 26.44 0.59 23.57 0.63 20.58 1.72 18.49 3.05 15.85 3.14 5.5 3.14 4.84 2.94"/></g></g></svg>