<svg xmlns="http://www.w3.org/2000/svg" viewBox="0 0 38.72 35.54"><defs><style>.cls-1{fill:#f1e7ff;stroke:#000;stroke-linejoin:round;}</style></defs><g id="Слой_2" data-name="Слой 2"><g id="_13" data-name="13"><path class="cls-1" d="M4.19,6.06l-3,6.66-.71,2H4.29l2.3-1.34L9,15.53v2.93l-2.41.35-.21,1.28-4.11.85.07,4.11,2.41.28v2L2.2,30.22l3,.36,2.41,1.84,2.48-1,2-.43V28.17a24.56,24.56,0,0,1-2.55-1.42c-.14-.21,1-1.92,1-1.92l2.67.57.45-1.91,2.91.83L18.64,26l.85,2.34L21,29l.43,4L22.33,35l2.48-.18,2.91-3.29L30.62,28l2.62-2.27,3.15,0,1.83-1.37-.33-3.69-2.52-.43.3-1.93v-2l-1-2.24-1.88-.47-.22-4.28,1.19-4.88L31.08,2.66l-1.6-.82L27.72.5,26.51,2,25.35,3.36,23.71,4.64l-2,.4-1.33-.43-1.45.67-.08,1.48,2.06,1V9.24l-1.08,1.15L17,10.45,15.39,9.24l-.08-4.89-2,.07L13,3l-.32-.9-.85-.16L9.32,1.68,7.51,3.28,7.45,6l-3,.09Z"/></g></g></svg>