<svg xmlns="http://www.w3.org/2000/svg" viewBox="0 0 45.22 61.66"><defs><style>.cls-1{fill:#f1e7ff;stroke:#000;stroke-linejoin:round;}</style></defs><g id="Слой_2" data-name="Слой 2"><g id="_14" data-name="14"><path class="cls-1" d="M11.81.74,10.28,7.47,5.74,26.11.5,45.52l3.19.64,3.47,2.13,3.19,2.83v3.3a11.73,11.73,0,0,0-1.49,1.45,8.12,8.12,0,0,0,.68,2c.1,0,1.8,3.27,1.8,3.27H24.76L27,59.74l2.83-1.08,3.5,0-.52-2.79-3.16-2.93-1.75-3L28,46.09,31.52,45l5.71-6.15,1.84-.47.71-4.06s.95-2.65.9-2.79-1-2.12-1-2.12L37.7,28.3l-.17-5.63.85-6.06,2.69-1.17,1.63-.64.85-2.58L44.72,12,44.4,8.21l-2.82-.15-3-.05-3.23-2.2L33.89,4.39l-2.12-2-1.3-.08-2.06-.19L27,1.65l-2-.42L23.7.91,21.86.67,20.75.52,20.6.5,19.5,1.7,19,2.4l-1.35-.12L16.05,2l-1.4-.15-2.21-.54Z"/></g></g></svg>