<svg xmlns="http://www.w3.org/2000/svg" viewBox="0 0 25.94 44.32"><defs><style>.cls-1{fill:#f1e7ff;stroke:#000;stroke-linejoin:round;}</style></defs><g id="Слой_2" data-name="Слой 2"><g id="_15" data-name="15"><polygon class="cls-1" points="14.41 0.5 12.68 5.85 9.35 15.59 6.78 25.78 4.33 30.12 2.53 32.96 1.3 36.45 0.5 41.46 4.23 42.69 8.91 43.82 12.74 43.82 15.57 40.14 17.89 36.78 21.66 37.54 25.45 37.59 25.45 35.65 24.22 35.18 24.55 27.95 22.18 27.76 20.82 25.63 20.82 22.16 22 18.36 24.07 17.84 25.08 15.8 23.38 12.76 22.78 10.85 24.26 9.39 24.26 6.1 21.99 4.08 21.17 3.35 19.49 2.29 17.87 1.3 14.41 0.5"/></g></g></svg>