<svg xmlns="http://www.w3.org/2000/svg" viewBox="0 0 96.43 243.46"><defs><style>.cls-1{fill:#f1e7ff;stroke:#000;stroke-linejoin:round;}</style></defs><g id="Слой_2" data-name="Слой 2"><g id="_16" data-name="16"><path class="cls-1" d="M.5,61.42V65.6l3.4,9.92L19.63,123l10.49,31.75L42.45,190s1.23,15.12,1.42,15.49l3.4,6.9v7.94l-.85,7.56.85,7.46L51.52,243V230.11l4-4v-7.28l7.66-6.33v-13.7L66.45,186l4-15.4,3.31-13.7s3.4-5.95,3.49-6.24,2.37-12,2.37-12l3-16.91,5.76-31.28,2.46-10.58L95,68.25l.94-5.39-3.3-16.44L89.79,34,88.37,21.1,87.81.5l-3.12,1-1.14.35L79.21,5.37l3.4,1.93v3.1l-2.46.3L81,15l-2,2.83-8.22.28-5.48,7.37,1,2.46-.47,4.54L64.78,34.8l-2.56,5.43-3.34.05-10,.16-3.09,1.74L41,45.09l-7.14.17-4.44,3.1-3.36,2.35-2.1.93-2.14.86-4.36,1.91-4.72,3.11L8,57.88,5.66,59.51,2.91,61.42Z"/></g></g></svg>