<svg xmlns="http://www.w3.org/2000/svg" viewBox="0 0 30.82 45.83"><defs><style>.cls-1{fill:#f1e7ff;stroke:#000;stroke-linejoin:round;}</style></defs><g id="Слой_2" data-name="Слой 2"><g id="_18" data-name="18"><polygon class="cls-1" points="1.08 3.85 3.01 7.19 4.88 10.42 4.88 13.4 3.15 17.16 1.35 20.36 0.5 21.52 2.26 22.86 4.88 24.2 6.58 25.45 5.8 28.21 5.38 30.05 5.62 34.61 7.41 34.89 8.45 37.16 8.45 39.29 8.12 41.37 10.67 41.65 11 45.34 18.04 45.34 18.32 40.61 20.55 38.81 24.75 37.07 30.32 36.55 30.32 34.66 27.35 32.77 24.18 29.55 22.58 25.68 21.54 21.29 21.77 16.66 24.14 13.68 27.14 12.26 28.2 8.26 28.34 1.21 27.41 1.65 26.38 3.13 26.1 5.41 23.83 5.53 23.45 4.49 21.47 4.49 18.37 3.89 16.58 3.19 13.18 2.73 10.96 1.3 7.24 1.26 3.4 0.5 1.08 3.85"/></g></g></svg>