<svg xmlns="http://www.w3.org/2000/svg" viewBox="0 0 96.62 141.53"><defs><style>.cls-1{fill:#f1e7ff;stroke:#000;stroke-linejoin:round;}</style></defs><g id="Слой_2" data-name="Слой 2"><g id="_19" data-name="19"><path class="cls-1" d="M3.76,59.32h7.37l6.31-7.09h7.65l.57-4.11,2.55-.42,1.7-4.89.64-6.74,1.13-5.38L30.41,25l2.45-4.82,2.46-3.5.47-5,9.45,8.69,1.23-5.86,6.14-1.32L58,10.14l2.5-2.88,1.28-4.49,8.88-.64,2-1.63,7.87,5-5.67,8.15,6.73,7,.71,7.65L85.47,32l-.31,8.43L83.89,45l-1.52,2.22,3.1,2.64L88,52l1.27,5.39,1.23,8.74,1,6.85,1,4.58,3.59,4.16-.28,7.09-4.35,1.79-3.12,3.69-1.2,7.51s-1.39,6.61-2,7.18S82,112,82,112l1.39,2.65L79.16,120l-3.78.47-5.1,7s.19,4.26-.09,4.26H63.67L62,134.25l-7.37,4.82-1.72,2-7.55-.32,2.27-1.63,1.63-3,1.56-4.5,1.42-3.69.35-4.21.91-5.2-.85-4.91-1.8-3V104.3l-1.32-5-4.91-5,1.7-2.65.94-2.74-.09-5H42.88l-.47,2.74-1.8,1.22.09,2.08L35,90l-1.23,1.32-4.07.76-.09,2.74a12.08,12.08,0,0,1-1.56.75c-.19,0-2.46-.14-2.46-.14L25,94.14,22.85,93l-3.36-1-4.63.15-3.68-.24-3.55-.19.76-2.41,2.22-3.78,2.83-1.13.15-4-1.75-4.77-2-3.17L8.53,70.76l-2.74-.91-.28,1.47-5-.1.28-1.84,1.66-1.13.09-2.79L2.3,64l.94-1.33Z"/></g></g></svg>