<svg xmlns="http://www.w3.org/2000/svg" viewBox="0 0 194.18 239.2"><defs><style>.cls-1{fill:#f1e7ff;stroke:#000;stroke-linejoin:round;}</style></defs><g id="Слой_2" data-name="Слой 2"><g id="_2" data-name="2"><path class="cls-1" d="M37.78,7.46l-7.09,7-10.49,11-1.7,2.55s1.23,10.2,1.23,10.67.38,3.59.38,3.59L17.27,45l-4.58,4.53-2,2.7a30,30,0,0,0-3.82.92C6.74,53.38.5,59.26.5,59.26L1.07,62,5.18,74,16,108.52l7.65,22.11,3.69,11.9L35.22,159l6,13.61s2.76,8.93,3.19,11.34-.07,14.24,0,14.45.17,4.75.17,4.75l8,8.79-1.92,6.31-.85,2.83.14,7.73L63,238.7h3l5.1-3.55,4.75-.35s4.68-3.19,4.89-3.19,4.82-2.13,4.82-2.13l3.19-1.2L97,222.54l7.09-.14,7.65-4.68,13.61-.21,3.66-7.8.47-4.53-1-2.46,5.48-7.37,8.22-.28,2-2.84-.85-4.25,2.46-.19v-3.21l-3.49-2,4.06-3.4,4.63-1.41v-9l.71-9.07,3.82-14.31,4.11-7.52,10.92-11.76,7.23-6.24,7.51-9.92,1.27-9.35,1.7-9.21.85-7.66V73.65l1.28-12.05,1.7-8.22.85-10.2L193.68,29V12.28l-7.23,5.53-6.94,5.67-6.66,4.25-6.38,2-7.23,1.69-9.07-.14-12-.57-7.08.85L120.26,34l-5.1-4.24-2.76-5.11.64-5.88h-4.33l-3.07-2.12-3.79-4-3.7-1.08L95.26,9.73,91.14,5.12l-5.23.14-.44,5-3.33-.36L77.85,9l-1.66.12L75.05,7l1.84-5.24L75.27.5l-2.46.81L71,3.76l-.9.45-1.69-.84L65.56,2.15,65,7.68,61.68,9.29l-4.43-.62L55.1,6.57l-2.57-2-3,1.87L49.4,8.88l-2.84,1.63-3.51-.62-2.94-.52Z"/></g></g></svg>