<svg xmlns="http://www.w3.org/2000/svg" viewBox="0 0 38.82 37.56"><defs><style>.cls-1{fill:#f1e7ff;stroke:#000;stroke-linejoin:round;}</style></defs><g id="Слой_2" data-name="Слой 2"><g id="_3" data-name="3"><polygon class="cls-1" points="6.95 0.64 4.85 10.79 2.11 23.35 0.5 30.06 3.72 30.91 7.59 31.34 9.29 29.5 12.88 29.97 17.13 31.01 20.53 31.34 24.07 34.88 27.29 37.05 30.59 37.05 32.44 33.18 34 28.03 35.61 21.29 31 22.22 29.76 20.19 29.79 18.07 30.98 16.62 33.62 14.53 38.32 14.53 38.32 12.35 36.66 11 34.38 11.22 32.78 11.63 29.12 11.48 28.99 7.63 28.96 7.28 27.12 5.17 26.11 3.66 25.43 2.5 24.83 1 24.69 0.64 21.93 0.5 21.46 1.59 21 2.57 19.52 4.75 17.15 4.89 16.77 2.53 15.68 2.52 15.58 3.94 12.43 3.94 11.7 0.72 7.79 0.72 7.22 0.72 6.95 0.64"/></g></g></svg>