<svg xmlns="http://www.w3.org/2000/svg" viewBox="0 0 57.1 94.12"><defs><style>.cls-1{fill:#f1e7ff;stroke:#000;stroke-linejoin:round;}</style></defs><g id="Слой_2" data-name="Слой 2"><g id="_4" data-name="4"><path class="cls-1" d="M31.35.5,29.06,2.25l.45,4.06L27,9.33l-.76,3.12-2.64,2.74H20.44l-3.69-2.55-3.49-1L8.63,12.93V29.41l-2,.52v6.24l-3,4.25v7.75l-.85,5.1L1.54,61.73.5,72.12H5.27L6,75.33H9.16l.1-1.55,1.07,0,.35,2.48,2.45-.18s1.31-2,1.41-2.09,1-2.12,1-2.12l2.76.14.85,2.13s1.32,2,1.35,2.12,2.09,2.41,2.09,2.41l.14,4.18,3.46.2,1.61-.45,2.48-.23s1.58,1.23,1.65,1.34,0,2.19,0,2.19h-4.7l-2.34,1.74L23.37,89.4l-.07,2.13,1.27,2.09,2.48-.5,2.62-.53,1.92-1.45,2.62-2.8,3.68-.11,3.76-3,4.25-3.19,4.25-3.76,2.91-2.83,3.54-3.15-2.07.06-2.34-.13-.86,0-1.34-1-1.16-1.74h-1.3l-1.82,1.81L42.37,75l-.95,1-4.89.28L32,76.56l-.55-2.83h-2.6l-1.42-2.39-3.91-.07-.81-2.64,2.69-.37-.8-2.85H22.42l-1-4.77,2.86-.59L27,58.47l-.62-5,4.54-.78V51.31l4.46-2.69V46.35h2.13l.92-1.49-.76-.65-.52-.55-.17-1.33L36.82,40h3.35l.39-2.31,1-1.08L43.88,35l-.78-2.25-.6-2.52,2.91-.42V26.3l.71-2.78-.83-1.05.08-2-.25-2.88-1.44-3.44L40.46,14l-2.59-1.1-1-3.08L36.56,8l-.34-2.3-.51-1.51L33.89,2.11Z"/></g></g></svg>