<svg xmlns="http://www.w3.org/2000/svg" viewBox="0 0 52.13 74.17"><defs><style>.cls-1{fill:#f1e7ff;stroke:#000;stroke-miterlimit:10;}</style></defs><g id="Слой_2" data-name="Слой 2"><g id="_5" data-name="5"><path class="cls-1" d="M.5,8.25l5.76.07,4.63.26,2.47.13,4.29-.13,4,1.39,1.57.94.54,1.16,2.23.14,1.79-.75.09-2.74,2.54-.47,1.63-.4,1-1.1.56-.12,5.21-.08,0-2.11,1.76-1.23L41,.5h4.34V5.82l-1.2,2.83-1.44,2.24-2.34.67-3.88,1.63s-4.59,3.21-5.62,3.88A30.77,30.77,0,0,0,27,21.43c0,.11-1.2,4.85-1.2,4.85s2.41,3.65,2.69,3.94,1.42,1.7,1.56,1.91.5,3.9.5,3.9,2.12,2.55,2.48,3.12,1.63,2.05,1.63,2.05.07,4.54.07,4.75,1.34,2.9,1.34,2.9l1.78,1.63,3-.28,3-3.47,2.27-4.61.85-4.68.42-5.24.57-3.9L49,22.63v4l1,2.26.78,1.31.47,2.74.38,2.17-.45,2.57L50.76,40l-.26,2.74-.15,1.79-.89,2.32L48.66,49l-.76,2.22-.81,2-.62,1.15-.53,1-.61.54L44,56.53l-2.2,2.07s-.42,3.08-.42,3.36-.28,2.13-.21,2.56A17.32,17.32,0,0,1,40.89,67l-3.54.35s-.21,2.62-.28,2.84-.14,3.33-.14,3.33L31.54,72l-4.75-1.49-5-2.13-4.18-2.19s.28-4.68,0-4.68l-3.19.07-2.55-.42L8.08,58.7s-3.82.5-3.89.29a19.74,19.74,0,0,1,.7-2.69l2.2-.36s.78-1.91.43-2-4.26-1.14-4.26-1.14L1.35,49.63l.07-2.9L2.7,45.17,1.28,43l.35-3.47.43-4L5,35.39l-.21-6.24,1.35-.21L5.89,26,3.83,24.41,2,23.63l.14-2.77,1.42-1.13.21-2.27L2.27,16.11,1.7,13.42.5,11.08Z"/></g></g></svg>