<svg xmlns="http://www.w3.org/2000/svg" viewBox="0 0 97.42 421.2"><defs><style>.cls-1{fill:#f1e7ff;stroke:#000;stroke-linejoin:round;}</style></defs><g id="Слой_2" data-name="Слой 2"><g id="_6" data-name="6"><path class="cls-1" d="M.5,418.39l1.08,2.31,2.66-.14,7.33-10.63,3.65-.25.32-7.26,5.93-10.69L23,388.94l.23-6.19L22,376.09l2.69-12.83,3.12-4.46,2.83-11.91,3.69-6.52.56-15.73,3.69-7.79,2.69-1.42L39,309.62l4.53-7.8h3.26l2.27-14.45-2.41-5.67L46.37,275l1-7.09-.14-6.52.42-10.06,6.8-7.94V239l-4.11-7.52-1.27-7.08,1.7-5.25,3.68-2.12s.57-10.63.71-11.06,2-6.38,2-6.38v-6.37L59.83,190v-4.4l6.94-6.52,1.85-8.5,2-4.68,2.84-.64.35-10.13,2.76-.85.78-5.46,5-2.69-1.84-5.6-.21-7.16,2.05-6.3,4.68-6,5.6-.92L95.4,117v-5.67s-8.15.15-8.5,0a17.6,17.6,0,0,1-2-1.91l.63-2,2.34-2,.14-3.47-2.26-.57.28-3.4L92.14,91l-.28-4.75-1.13-7.66L89.1,72.78l-2.62-1.41-.36-7L84.21,58l1.13-2.41h6.52l.43-5.26,1.79-3.41,2.17-1.79.67-10.4-2.18-4.25L93.7,23l-3.49-6.24.66-5.1L92.1,8.91,91.72.5,87.37,4.66l-7.56,6.19V23.56l-.07,5.24-.37,6.1L79,41.41,78.44,48l-.36,4.13-1.37,6.63-.43,2.66-.64,6-.47,4.45,0,6.61v3.78l-.47,4.17-.38,3.48-.6,3.24-1,5.39-.61,4.33-.77,5.61L69,111.56l-2.19,2.9-3,4L59.67,122l-2.94,2.54-2.07,2.2-2,2.11-1.92,2.07-5.12,5.52-4,7.31-1.31,4.68-1.73,6.47-.81,3-.63,7.19-.17,6.1v5.15l.23,8.51.13,4.72.21,7.37.47,4.29,1,8.94.86,3.76,1.82,8L43,228l1.86,9.22.29,1.44-1,5.39-2,5.5-1.69,4.73-2.14,8.47-1.14,5.28-.75,4.06L35,280.44,33.58,288l-1.81,9.8-1.61,9-1.27,7.1L27.7,320.1l-1.27,6.38L22.88,333l-1.45,6-1.3,5.39-1.24,4.94-2.12,8.24-1.24,4.8-1.79,7-1.39,5.4v13.47l-2.89,2.62L4.7,394.7v7L.73,406Z"/></g></g></svg>