<svg xmlns="http://www.w3.org/2000/svg" viewBox="0 0 47.61 45.17"><defs><style>.cls-1{fill:#f1e7ff;stroke:#000;stroke-linejoin:round;}</style></defs><g id="Слой_2" data-name="Слой 2"><g id="_7" data-name="7"><path class="cls-1" d="M2.4,12.06l2.23-.37L7.5,8.5l2.77-2.31L14.34,7.3l1.77,2.79,2,3.17,3.78.56,3.4,2.27,2,.85H32v-3.4l3.21-.38,2.27,1.61.56-.95-.66-7L35.87,4.75l-.09-3.31L37.48.5l2.45.85V5.2l.66,3.52h4.26l1.41,3.5.85.94V15l-1.22,1.13-.1,2.17,1.32,1.14v2.93l-1.7,1.79.1,2.27,1.6,2.17-1,2.46L44.85,34.8l-1,2.55H40.31l-2.55-1-4.06-.38-3-.28s-1.32-2.22-1.6-2.1-3.88,0-3.88,0l-2.83.78-.95,2.36-3.49.66-2,2.55-2.36,2.65-3.31,2.12H4l-.84-2.26L1.09,41,.5,38.65l.26-4.73,1.16-3.2L4.12,28l.5-.69.47-2H2.4V12.06Z"/></g></g></svg>