<svg xmlns="http://www.w3.org/2000/svg" viewBox="0 0 43.93 53.49"><defs><style>.cls-1{fill:#f1e7ff;stroke:#000;stroke-linejoin:round;}</style></defs><g id="Слой_2" data-name="Слой 2"><g id="_8" data-name="8"><path class="cls-1" d="M32.37.5A19.29,19.29,0,0,1,31,2.74C30.81,2.86,29,4.49,29,4.49l6.59.78V18.59h2.69a9.05,9.05,0,0,1-.64,2.27c-.28.29-2.48,2.91-2.48,2.91L33.93,27l-.32,4.6.46,2.55,2.13,1.28.92,2.48s6.52.14,6.3,0-6.19,3.59-6.19,3.59l-4.48,2.08L25.14,53l-2.48-2.36-2.81-.28L18.4,49.19,15.87,47l-2.52-2.1L10.8,42.78l-1.72-.92-.24-5.48L8.65,31.8l-.08-1.94L8.5,28.09l-.37-2.83L10,24.9l-.05-1.49L9.67,22l-1.38-.26-2.5-.34-1.12-.8-.94-1-.61-1.16L2.06,16.7.5,14.16,1.55,12.9l2.54-2.21,3.05,0,.34-.18,1.6-1.19h7l.34-4.63,2-1.68,2.33-1.07L22.83,1,26.58.67,28.87.5Z"/></g></g></svg>