<svg xmlns="http://www.w3.org/2000/svg" viewBox="0 0 20.73 36.34"><defs><style>.cls-1{fill:#f1e7ff;stroke:#000;stroke-linejoin:round;}</style></defs><g id="Слой_2" data-name="Слой 2"><g id="_9" data-name="9"><path class="cls-1" d="M14.14.52l-.5,3.73V8.08a7.74,7.74,0,0,1-.78,2.06,10.34,10.34,0,0,0-1.27,1.48l.56,2.56a20,20,0,0,1,2,1.77c.07.21.71,3.4.71,3.4l1.48.92,2.63.35,1.27,1.59v8.55L20,34.47A11.79,11.79,0,0,1,18.6,35.6l-4.72.24H9.25V34L7.77,33,6.2,32l-2-2-1-1L1.71,25.49.5,20.75l.18-4.47L3,13.09,6,11.6l1.1-3.83.12-3.14L7.26.5Z"/></g></g></svg>