<svg xmlns="http://www.w3.org/2000/svg" viewBox="0 0 123.86 254.23"><defs><style>.cls-1{fill:#f1e7ff;stroke:#000;stroke-linejoin:round;}</style></defs><g id="Слой_2" data-name="Слой 2"><g id="nn_2"><path class="cls-1" d="M61.84.55,58.91,2.82,55.69,5.87,53.12,8.2l-2.86,2.46-4.09,3.09-3.43,2.72-3.69.1L37,18.78,35.2,20.31,34,20.93l-1,4-1.18,4.48-1,3.2-1.9,4,2.49.15.32,3.79-1.17.22-.85,2.58-4.32,1.81L24.82,50l-.19,1.35.17,5.53,1.84,1.11,1.14,2.18L26.88,63l-.7,4-1.72.44-2,2.08L20.11,72l-1.49,1.6-3.55,1.13L15,78.5l1.67,2.88,3.24,3.07L20.37,87l.33,4.5.35,2.27-1.34,1.39-.43,2.16,1,1.93.74,2,1,3.26.85,2.25.26,4.54-.32,1.49-.46,2.05L22.32,119l-.66,1.73-1.32,1.52.54,2.41,2,1.84L23.6,130l1.27.78,2.84.49L29,133,29,137.05v4.53l-.26,3.53-1.37,1.14-5.53.23-1.16,2.21-2.1,1.79,6.29.74,2.45-.34,1.41-1.49,1.48-1.65L33,145.37l4.07,1.11,3.71,5.87,3.73.64,3,1.95L50,156.12h4.72v-3.4l3.1-.36L60.24,154l.57-.95-.65-6.87-1.44-2.08-.18-3.42,1.7-.95,2.53.89-.07,3.81.64,3.43,4.2.09,1.55,3.57.79.87v1.8l-1.23,1.13-.09,2.17,1.32,1.14v2.93l-1.65,1.74.09,2.38,1.53,2.18-1.11,2.69-2.07,6h-3.6l-2.55-1-7.08-.66L52,172.76l-3.86,0-3,.86-1,2.29-3.3.63-1.57,1.87-1.79,2.1-1,1.15-3.28,2.22-2,1-4,2.45-4,1.87-.78.36-1.62,2-4,5L15,198.68l-1.18,1.9-2.17,4.18-.24,4-.1,3v2l.31,5.1v.69l-.78,3.44-.13.35-3.4,5.24-2.53,3.7L2.66,235.9l-1.45,2.47-.71,6,2.9,5.22,5,4.14,5.8-1.3L19,251.35l7-.85,7.77.32,13.59.36,6.91-1.62,6.7-2.07,5.87-3.75,6-4.75,6.7-5.21,3.23-2.52,3.6-2.95,3.24-2.68,4.11-3.82,2.79-.68,1-1.32L97,216.64a26.5,26.5,0,0,1-2-2c0-.19.24-2.55.24-2.55L97.52,210l1.77-3.45v-9.64l3-.92,1.49-15,3.12-4.18s2.83.14,2.69-.07,2.08-6.5,2.08-6.5l5.58-3.12,4.44-1.79-1.14-20.22-3.59-4.92.19-8.31,2.93-4.7-.19-7.58-1.79-4.92-1.61-1.23.38-14.93,1.6-5.1s1.89-7.56,1.89-7.84,1.33-6.71,1.33-6.71l1.7-8.5V59.46l-1.14-10.3L120.9,46.7l-.42-12.18h-2.89l-1.08-1.36L112.42,32l-1.72-.55-2.65-2-5.29-.28-.85,1.13h-3l-3.2-3.82.6-4.32.44-3.75.17-1.08L95.16,16l-.8-.51-.23-2.32L93.9,10.9l-2.24-1-1.47-.57L87,7.21l-5.13.2-7.58,1.4L68.4,7.43,64.68,4.28,63,.5Z"/></g></g></svg>