<svg xmlns="http://www.w3.org/2000/svg" viewBox="0 0 21.34 56.77"><defs><style>.cls-1{fill:#f1e7ff;stroke:#000;stroke-linejoin:round;}</style></defs><g id="Слой_2" data-name="Слой 2"><g id="nn_3"><path class="cls-1" d="M8.15.5,12.9,6.31l4.82,8s2.06,5.38,2.06,5.81a23,23,0,0,0,1.06,3v2.48l-.71,2.48-2,6.28a54.83,54.83,0,0,0-3.62,5.58c-.25.85-1.29,6.51-1.29,6.89s-.76,3.88-.76,4.16-.75,5.29-.75,5.29L3,56.12,1.21,54.36l.64-2.06,2.34-2,.14-3.47-2.27-.57.28-3.4,6.1-7-.23-3.85L7.7,28.13l-.59-4L5.39,17.72,2.76,16.06,2.43,9.59.5,2.91,1.63.5Z"/></g></g></svg>